<svg xmlns="http://www.w3.org/2000/svg" width="100" height="100" viewBox="0 0 100 100">
  <g fill="none" fill-rule="evenodd">
    <path fill="#FFF" d="M77.7842553,0.464842105 C78.0978723,0.464842105 78.4038298,0.544421053 78.7029787,0.703157895 C79.0012766,0.863157895 79.2348936,1.09052632 79.4012766,1.38736842 C79.5676596,1.68336842 79.6514894,1.99284211 79.6514894,2.31494737 C79.6514894,2.63368421 79.5693617,2.93978947 79.4046809,3.23326316 C79.2404255,3.528 79.0097872,3.75621053 78.7140426,3.91831579 C78.4174468,4.08168421 78.1080851,4.16252632 77.7842553,4.16252632 C77.4604255,4.16252632 77.1502128,4.08168421 76.8544681,3.91831579 C76.5578723,3.75621053 76.3268085,3.528 76.1621277,3.23326316 C75.9965957,2.93978947 75.9144681,2.63368421 75.9144681,2.31494737 C75.9144681,1.99284211 75.9982979,1.68336842 76.1655319,1.38736842 C76.332766,1.09052632 76.566383,0.863157895 76.8655319,0.703157895 C77.1638298,0.544421053 77.4706383,0.464842105 77.7842553,0.464842105 Z M77.7842553,0.770947368 C77.5212766,0.770947368 77.2659574,0.837894737 77.0174468,0.970947368 C76.7689362,1.104 76.5744681,1.29473684 76.4344681,1.54147368 C76.2940426,1.78905263 76.2238298,2.04673684 76.2238298,2.31494737 C76.2238298,2.58105263 76.2931915,2.83621053 76.4310638,3.08042105 C76.5685106,3.32463158 76.7612766,3.51536842 77.0089362,3.65136842 C77.2565957,3.78778947 77.5144681,3.85642105 77.7842553,3.85642105 C78.0531915,3.85642105 78.3114894,3.78778947 78.5591489,3.65136842 C78.8068085,3.51536842 78.9987234,3.32463158 79.1357447,3.08042105 C79.272766,2.83621053 79.3412766,2.58105263 79.3412766,2.31494737 C79.3412766,2.04673684 79.2719149,1.78905263 79.1323404,1.54147368 C78.992766,1.29473684 78.7987234,1.104 78.5493617,0.970947368 C78.3,0.837894737 78.0446809,0.770947368 77.7842553,0.770947368 Z M76.9642553,3.33642105 L76.9642553,1.34736842 L77.6548936,1.34736842 C77.8914894,1.34736842 78.0621277,1.36505263 78.1680851,1.40168421 C78.273617,1.43831579 78.3574468,1.50273684 78.4208511,1.59410526 C78.4834043,1.68589474 78.5144681,1.78315789 78.5144681,1.88589474 C78.5144681,2.03157895 78.4621277,2.15789474 78.3574468,2.26568421 C78.2523404,2.37347368 78.1131915,2.43368421 77.9395745,2.44715789 C78.0106383,2.47663158 78.0680851,2.51157895 78.1106383,2.55242105 C78.1914894,2.63115789 78.2906383,2.76252632 78.4080851,2.94736842 L78.6531915,3.33642105 L78.2565957,3.33642105 L78.0782979,3.02273684 C77.9378723,2.77684211 77.8255319,2.62189474 77.7395745,2.56 C77.6804255,2.51410526 77.5931915,2.49136842 77.4791489,2.49136842 L77.2889362,2.49136842 L77.2889362,3.33642105 L76.9642553,3.33642105 Z M77.2889362,2.21726316 L77.6825532,2.21726316 C77.8702128,2.21726316 77.9987234,2.18863158 78.067234,2.13347368 C78.1357447,2.07831579 78.1706383,2.00463158 78.1706383,1.91284211 C78.1706383,1.85431579 78.153617,1.80168421 78.1208511,1.75452632 C78.0876596,1.70863158 78.0421277,1.67368421 77.9838298,1.65094737 C77.9246809,1.62736842 77.8161702,1.61684211 77.6574468,1.61684211 L77.2889362,1.61684211 L77.2889362,2.21726316 Z M41.7548936,0.343157895 L41.8174468,0.343157895 L41.8174468,4.59410526 L37.4770213,4.59410526 L37.4770213,0.343157895 L41.7548936,0.343157895 Z M22.8651064,9.33221053 C20.5493617,9.02315789 19.0365957,7.62526316 18.5970213,5.91663158 L18.5970213,11.4505263 L32.9038298,11.4505263 C33.3212766,11.4505263 33.6625532,11.1124211 33.6625532,10.6993684 C33.6625532,10.2863158 33.3212766,9.94863158 32.9038298,9.94863158 L22.8651064,9.33221053 Z M18.5970213,15.7246316 L14.107234,15.7246316 L14.107234,5.24421053 L33.2229787,6.48084211 C35.2574468,6.48084211 36.9808511,7.81305263 37.4770213,9.66021053 L37.4770213,4.77684211 L41.8174468,4.99831579 L41.8174468,10.3953684 C41.8174468,11.0850526 42.387234,11.6488421 43.0842553,11.6488421 L49.7710638,11.6488421 C50.4680851,11.6488421 51.0378723,11.0850526 51.0378723,10.3953684 L51.0378723,5.46905263 L55.3782979,5.69094737 L55.3782979,11.4505263 L69.9706383,11.4505263 C70.3880851,11.4505263 70.7293617,11.1124211 70.7293617,10.6993684 C70.7293617,10.2863158 70.3876596,9.94863158 69.9706383,9.94863158 L59.8212766,9.33221053 C57.407234,9.01010526 55.8651064,7.50442105 55.5025532,5.69726316 C60.1587234,5.93473684 64.8059574,6.16715789 69.4680851,6.37010526 L70.2897872,6.40589474 C72.7085106,6.40589474 74.687234,8.36378947 74.687234,10.7570526 L74.687234,11.3734737 C74.687234,13.7667368 72.7085106,15.7246316 70.2897872,15.7246316 L55.3068085,15.7246316 L55.3068085,12.2509474 C54.9391489,14.2206316 53.1885106,15.7246316 51.1004255,15.7246316 L41.7548936,15.7246316 C39.6497872,15.7246316 37.8876596,14.1962105 37.5395745,12.2029474 C37.1455319,14.2029474 35.3553191,15.7246316 33.2229787,15.7246316 L18.5970213,15.7246316 Z M36.787234,4.59621053 L18.4685106,4.59410526 L7.45446809,4.59410526 L10.2868085,0.342736842 L18.5970213,0.342736842 L18.5970213,3.62863158 C19.072766,1.73557895 20.8097872,0.321684211 22.8651064,0.321684211 L36.787234,0.321684211 L36.787234,4.59621053 Z M12.2740426,5.13936842 L5.40978723,15.7246316 L0.04,15.7246316 L7.28170213,4.85431579 L12.2740426,5.13936842 Z M74.687234,4.59621053 L55.4246809,4.59410526 C55.4676596,2.23705263 57.4289362,0.321684211 59.8212766,0.321684211 L74.687234,0.321684211 L74.687234,4.59621053 Z M51.0378723,4.59410526 L51.0378723,0.343157895 L55.3782979,0.343157895 L55.3782979,4.59410526 L51.0378723,4.59410526 Z" transform="translate(12 42)"/>
    <rect width="100" height="100"/>
  </g>
</svg>
