<svg xmlns="http://www.w3.org/2000/svg" width="100" height="100" viewBox="0 0 100 100">
  <g fill="none" fill-rule="evenodd">
    <path fill="#FFF" d="M48.9646707,23.7548668 C50.7916567,27.082894 51.9211577,30.7073587 51.9211577,34.4966033 C51.9211577,38.2859864 50.9245309,41.6468587 49.2636727,44.7111549 C49.7619162,43.1296005 50.2601597,40.493538 50.2601597,37.561038 C50.2601597,34.6283995 50.0276647,33.870606 50.0276647,33.870606 L41.4238124,28.2360761 C42.4868064,30.5095951 43.4169261,33.4752174 43.4169261,37.1656495 C43.4169261,40.8559429 42.3871856,44.0521739 41.3905589,46.3256929 C41.7226747,44.8429511 42.1212974,42.5364484 42.1212974,39.999337 C42.1212974,37.462087 41.8888024,36.8690734 41.8888024,36.8690734 L33.7831936,32.6184728 C34.7798204,34.3318234 35.7099401,37.1326658 35.7099401,40.493538 C35.7099401,43.8544103 34.6136926,48.4017255 30.7601996,52.7180163 C48.0678044,45.5349158 55.1435329,44.7441386 59.1631537,44.7441386 C63.1827745,44.7441386 65.4748902,45.8314918 66.2056287,47.8084348 C66.8368862,46.9189837 68.066008,44.6123424 68.066008,42.4376359 C68.066008,39.9333696 66.6043912,38.1212065 63.4152695,35.1226005 C60.2261477,32.1242717 52.3530339,25.9295734 48.9646707,23.7548668 Z M35.5106986,27.4782826 C36.4740719,28.7632609 37.7031936,31.0039348 37.7031936,32.6514565 C37.7031936,32.947894 37.6035729,33.3762663 37.6035729,33.3762663 C38.4008184,33.5080625 40.5933134,34.0024022 41.6563074,34.4307745 C41.4570659,33.1786413 40.7593014,31.1027473 40.2610579,30.0483777 L35.5106986,27.4782826 Z M43.0183034,22.6345299 C44.5464271,25.204625 45.2771657,27.3135027 45.2771657,28.4996685 C45.2771657,28.8292283 45.2107984,29.3893967 45.2107984,29.3893967 C46.3402994,29.6858342 48.4995409,30.4437663 49.6622954,31.0367799 C49.4298004,29.6858342 48.8981637,27.7088913 48.1009182,25.9295734 L43.0183034,22.6345299 Z M51.0907984,17 C52.0874251,19.0429103 53.5822954,22.3379538 53.5822954,25.5012011 C56.0071457,26.324962 60.8572655,28.3020435 62.1528942,31.992337 C62.4518962,31.5969484 62.7176447,30.7733261 62.7176447,29.9494266 C62.7176447,27.4782826 60.5251497,24.3150353 57.9338922,22.008394 C55.3427745,19.7018913 52.5191617,17.7249484 51.0907984,17 Z M21.0916766,67.1142908 C19.4988623,67.1142908 17.99002,66.5322255 17.0958084,65.8115734 C16.2015968,65.0910598 15,63.8437772 15,61.4599429 C15,59.0763859 16.3413174,57.7460897 16.9560878,57.1917418 C17.5708583,56.637394 19.1077844,55.8613071 21.1196208,55.8613071 C23.1315968,55.8613071 24.4449701,56.5265245 25.2553493,56.9698641 L25.2553493,59.8801902 L24.8641317,59.8801902 C24.6126347,58.4943207 23.5507585,56.5818207 21.4549501,56.5818207 C19.3591417,56.5818207 17.2914172,58.522038 17.2914172,61.4323641 C17.2914172,64.3425516 19.3313373,66.3936386 21.427006,66.3936386 C23.5228144,66.3936386 24.5008583,64.5644293 24.8641317,63.0676902 L25.2553493,63.0676902 L25.2553493,65.9778777 C24.3331936,66.6155163 22.684491,67.1142908 21.0916766,67.1142908 Z M34.3091018,57.8846766 C33.7502196,57.1638859 33.0516168,56.5265245 31.9338523,56.5265245 C30.8160878,56.5265245 29.9218762,57.3303288 29.4747705,58.1062772 C29.0278044,58.8823641 28.6086427,60.0187772 28.6086427,61.3769293 C28.6086427,62.7350815 28.9438323,63.9823641 29.5306587,64.8691821 C30.117485,65.7561386 30.871976,66.4769293 31.9338523,66.4769293 C32.9957285,66.4769293 33.7781637,65.7561386 34.3370459,64.9524728 C34.8959281,64.1486685 35.2312575,62.7627989 35.2312575,61.4323641 C35.2312575,60.1019293 34.867984,58.6051902 34.3091018,57.8846766 Z M35.9017764,65.5068207 C34.9797605,66.4769293 33.5266667,67.1142908 31.8779641,67.1142908 C30.2292615,67.1142908 28.8320559,66.3936386 28.0777046,65.6454076 C27.3232136,64.8968995 26.3451697,63.6496168 26.3451697,61.4599429 C26.3451697,59.2704076 27.3511577,58.0508424 28.0497605,57.3303288 C28.7483633,56.609538 29.9498204,55.8613071 31.9338523,55.8613071 C33.9178842,55.8613071 34.9518164,56.5541033 35.7342515,57.2747554 C36.5166866,57.9954076 37.5225349,59.3535598 37.5225349,61.4046467 C37.5225349,63.4557337 36.8239321,64.536712 35.9017764,65.5068207 Z M44.7599202,62.485625 C44.7599202,62.485625 45.9896008,64.6752989 46.716008,65.7561386 C47.4425549,66.8371168 48.0573253,67.4468995 48.7838723,67.9180951 L47.6381637,67.9180951 C45.5144112,67.4468995 44.8159481,66.7541033 44.1732335,65.7007038 C43.5303792,64.6474429 41.6582635,61.4877989 41.6582635,61.4877989 L42.3848104,61.4877989 C42.9995808,61.4877989 43.3628543,61.2937772 43.5584631,61.0997554 C43.7540719,60.9055951 44.2570659,60.1850815 44.2570659,59.1872554 C44.2570659,58.1894293 43.8657086,57.5796467 43.6981836,57.3580462 C43.5303792,57.1361685 43.1112176,56.6651114 42.2730339,56.6651114 L41.0669661,56.6651114 C40.9187226,56.7859592 40.7900399,56.911519 40.7243713,57.0252989 L40.7243713,65.9228587 C40.9479242,66.3107636 41.898024,66.837394 41.898024,66.837394 L37.4672056,66.837394 C37.4672056,66.837394 38.4173054,66.3107636 38.6408583,65.9228587 L38.6408583,57.0252989 C38.4173054,56.637394 37.4672056,56.1107636 37.4672056,56.1107636 L43.027525,56.1107636 C43.782016,56.1107636 44.5923952,56.2769293 45.2351098,56.6651114 C45.8776846,57.0531549 46.3806786,57.8291033 46.3806786,59.1041033 C46.3806786,60.3791033 45.7938523,61.1274728 45.3748303,61.4323641 C44.9556687,61.7371168 44.1451497,62.0142908 43.5025749,62.0142908 C43.8098204,62.2638859 44.1173453,62.4579076 44.7599202,62.485625 Z M54.4843313,61.1551902 C55.2108782,61.6263859 55.8256487,62.4579076 55.8256487,63.6496168 C55.8256487,64.8416033 55.3226547,65.6454076 54.6799401,66.1997554 C54.0373653,66.7541033 52.9753493,67.1142908 51.7737525,67.1142908 C50.5722954,67.1142908 49.1192016,66.5876603 48.5603194,66.2550516 L48.5603194,63.5943207 L48.8956487,63.5943207 C49.1471457,64.370269 49.4545309,65.0354864 50.0693014,65.6175516 C50.6840719,66.1997554 51.3266467,66.3936386 51.9134731,66.3936386 C52.5004391,66.3936386 53.143014,66.0887473 53.2827345,65.9225815 C53.4224551,65.7561386 53.7857285,65.4512473 53.7857285,64.5920082 C53.7857285,63.7329076 53.3106786,63.3171467 52.5841317,62.9013859 C51.8577246,62.485625 50.460519,61.986712 49.7339721,61.4046467 C49.0074251,60.8225815 48.6441517,59.9910598 48.6441517,59.0209511 C48.6441517,58.0508424 49.0074251,57.385625 49.6221956,56.775981 C50.2368263,56.1660598 51.1591218,55.8613071 52.4164671,55.8613071 C53.6739521,55.8613071 54.651996,56.2216332 55.3226547,56.5818207 L55.3226547,59.0209511 L54.9593812,59.0209511 C54.8476048,58.3280163 54.5122754,57.7460897 54.0651697,57.2194592 C53.6182036,56.6926902 53.0593214,56.4988071 52.4164671,56.4988071 C51.7737525,56.4988071 51.4663673,56.6926902 51.1591218,56.8589946 C50.8517365,57.0252989 50.3765469,57.524212 50.3765469,58.2171467 C50.3765469,58.9100815 50.8237924,59.436712 51.4943114,59.8247554 C52.1649701,60.2127989 53.7579242,60.6839946 54.4843313,61.1551902 Z M60.7854491,58.7245136 L59.233014,62.5960788 L62.3409581,62.5960788 L60.7854491,58.7245136 Z M63.6219162,65.7839946 L62.663992,63.3997446 L58.9108184,63.3997446 L57.9213174,65.8670082 C57.9213174,66.2550516 59.0390818,66.8371168 59.0390818,66.8371168 L55.5741517,66.8371168 C55.5741517,66.8371168 56.5521956,66.421356 56.7478044,65.9225815 C56.9434132,65.4235299 60.7157285,56.1107636 60.7157285,56.1107636 L62.0570459,56.1107636 C62.0570459,56.1107636 65.8853892,65.5898342 66.0530539,65.9778777 C66.2207186,66.3659212 67.1708184,66.8371168 67.1708184,66.8371168 L62.3644311,66.8371168 C62.3644311,66.8371168 63.6219162,66.1997554 63.6219162,65.7839946 Z M71.9369661,66.837394 L67.5061477,66.837394 C67.5061477,66.837394 68.4562475,66.3107636 68.6798004,65.9228587 L68.6798004,57.0252989 C68.4562475,56.637394 67.5061477,56.1107636 67.5061477,56.1107636 L71.9369661,56.1107636 C71.9369661,56.1107636 70.9868663,56.637394 70.7633134,57.0252989 L70.7633134,65.9228587 C70.9868663,66.3107636 71.9369661,66.837394 71.9369661,66.837394 Z M79.855489,62.485625 C79.855489,62.485625 81.0850299,64.6752989 81.8115768,65.7561386 C82.537984,66.8371168 83.1527545,67.4468995 83.8794411,67.9180951 L82.7335928,67.9180951 C80.6098403,67.4468995 79.9113772,66.7541033 79.2686627,65.7007038 C78.6259481,64.6474429 76.7536926,61.4877989 76.7536926,61.4877989 L77.4802395,61.4877989 C78.09501,61.4877989 78.4582834,61.2937772 78.6538922,61.0997554 C78.849501,60.9055951 79.352495,60.1850815 79.352495,59.1872554 C79.352495,58.1894293 78.9611377,57.5796467 78.7936128,57.3580462 C78.6259481,57.1361685 78.2067864,56.6651114 77.3684631,56.6651114 L76.1623952,56.6651114 C76.0141517,56.7859592 75.8854691,56.911519 75.8198004,57.0252989 L75.8198004,65.9228587 C76.043493,66.3107636 76.9934531,66.837394 76.9934531,66.837394 L72.5627745,66.837394 C72.5627745,66.837394 73.5127345,66.3107636 73.7362874,65.9228587 L73.7362874,57.0252989 C73.5127345,56.637394 72.5627745,56.1107636 72.5627745,56.1107636 L78.1228144,56.1107636 C78.8774451,56.1107636 79.6878244,56.2769293 80.3303992,56.6651114 C80.9732535,57.0531549 81.4761078,57.8291033 81.4761078,59.1041033 C81.4761078,60.3791033 80.8892814,61.1274728 80.4701198,61.4323641 C80.0509581,61.7371168 79.2405788,62.0142908 78.598004,62.0142908 C78.9053892,62.2638859 79.2127745,62.4579076 79.855489,62.485625 Z M83.733014,56.9705571 C83.7059082,56.9396522 83.6680439,56.92025 83.6188623,56.9120734 C83.5944112,56.9087473 83.5206387,56.9070842 83.3978244,56.9070842 L83.1615569,56.9070842 L83.1615569,57.2845951 L83.3855289,57.2845951 C83.530978,57.2845951 83.6216567,57.2784973 83.657984,57.2664402 C83.6938922,57.2542446 83.7223952,57.2331793 83.7427944,57.2033832 C83.7633333,57.1737255 83.7733932,57.1364457 83.7733932,57.0918207 C83.7733932,57.0416522 83.75998,57.0013234 83.733014,56.9705571 Z M83.6895609,57.4865163 C83.7550898,57.5244891 83.8091617,57.5662038 83.8516367,57.6115217 C83.8942515,57.6568397 83.9518164,57.7373587 84.0241916,57.8530788 L84.2072255,58.1434185 L83.8452096,58.1434185 L83.625988,57.8195408 C83.5483034,57.7038207 83.4950699,57.6309239 83.4664271,57.6008505 C83.4377844,57.5707772 83.4074651,57.5499891 83.3754691,57.5389022 C83.3433333,57.5276766 83.292475,57.5221332 83.2228942,57.5221332 L83.1615569,57.5221332 L83.1615569,58.1434185 L82.8586427,58.1434185 L82.8586427,56.6552717 L83.4960479,56.6552717 C83.6565868,56.6552717 83.7728343,56.6687147 83.8456287,56.6953234 C83.9182834,56.7222092 83.9764072,56.7697446 84.02,56.8380679 C84.0637325,56.9063913 84.0855289,56.9844158 84.0855289,57.0724185 C84.0855289,57.1841196 84.0525549,57.2764185 83.9861876,57.349038 C83.9202395,57.4219348 83.8211776,57.4676685 83.6895609,57.4865163 Z M83.4960479,56.1379266 C82.7938124,56.1379266 82.2245908,56.7025299 82.2245908,57.3990679 C82.2245908,58.0954674 82.7938124,58.6600707 83.4960479,58.6600707 C84.1981437,58.6600707 84.7673653,58.0954674 84.7673653,57.3990679 C84.7673653,56.7025299 84.1981437,56.1379266 83.4960479,56.1379266 Z M83.4967465,58.799212 C82.717525,58.799212 82.0857086,58.1726603 82.0857086,57.3996223 C82.0857086,56.6264457 82.717525,55.9997554 83.4967465,55.9997554 C84.2761078,55.9997554 84.9080639,56.6264457 84.9080639,57.3996223 C84.9080639,58.1726603 84.2761078,58.799212 83.4967465,58.799212 Z"/>
    <rect width="100" height="100"/>
  </g>
</svg>
