<svg xmlns="http://www.w3.org/2000/svg" width="100" height="100" viewBox="0 0 100 100">
  <g fill="none" fill-rule="evenodd">
    <path fill="#FFF" d="M5.90343309,53.1598875 C6.44478353,52.9139326 7.0756112,53.116333 7.47944649,53.5134477 C8.46923885,54.3999104 9.57252741,55.1815859 10.8315433,55.6706776 C14.4898159,57.2155821 19.0138269,56.4930894 21.9644639,53.8903225 C22.4899777,53.4009746 23.1894309,52.8063273 23.9680676,53.1598875 C24.8971527,53.4263387 25.1954101,54.6842958 24.5513852,55.3606719 C21.2782079,58.6605674 16.1418453,59.5726503 11.6442288,58.6736338 C9.3347133,58.1891537 7.1495157,57.1031089 5.46264556,55.4862114 C4.73970121,54.8482657 4.9271019,53.4622071 5.90343309,53.1598875 M84.5512788,51.8481278 C85.6252695,51.2947292 87.1033595,52.1199592 87.0716861,53.3212954 C87.2379712,54.6281873 85.5883173,55.5810065 84.4533554,54.9097545 C83.2180945,54.3256115 83.2656045,52.3428559 84.5512788,51.8481278 M60.5822029,49.0811346 C61.0177116,48.609721 61.7409198,48.7480707 62.321598,48.7098964 C65.2936146,48.7531947 68.27091,48.6302172 71.2429266,48.7839391 C72.1429778,49.5553665 71.8579176,50.7669508 71.8922304,51.7968872 C71.8631965,52.8216995 71.9582165,53.84933 71.836802,54.868762 C71.5781363,55.5018398 70.9789819,55.9243186 70.4484532,56.3370618 C68.0096048,58.191972 64.8686637,59.0704923 61.7860544,58.9756972 C58.3703469,59.027194 54.8862778,57.8227834 52.4632661,55.4477809 C51.652956,54.7790909 52.0303969,53.3036174 53.0861754,53.116333 C53.7486764,52.9113705 54.3372729,53.3164276 54.7859788,53.7363444 C57.2301061,55.9909314 60.8435081,56.9491309 64.1322582,56.2522585 C65.9587551,55.9012603 67.6163273,54.9968635 69.0495467,53.8618839 C69.0521861,52.9805454 69.0469072,52.096901 69.0469072,51.2153062 C66.4605138,51.179694 63.870953,51.264241 61.2869351,51.1819998 C60.2683727,51.1077009 59.8827496,49.7344525 60.5822029,49.0811346 M5.64767074,48.7890632 C6.09901606,48.525174 6.65857868,48.609721 7.16244898,48.5789766 C9.88899702,48.607159 12.6184485,48.5738526 15.3447326,48.5917868 C15.7910629,48.5636044 16.2424082,48.7429466 16.5063529,49.1016309 C17.1714933,49.8420578 16.6779169,51.2281164 15.6326961,51.3077955 C12.8929509,51.4025907 10.1452873,51.3077955 7.4002631,51.3536559 C6.78764761,51.3077955 6.06470326,51.4589553 5.55529012,51.0436502 C4.79750509,50.531244 4.85055796,49.2399806 5.64767074,48.7890632 M29.410342,41.6128152 C30.1153381,41.1490876 31.1948716,41.4488452 31.5195235,42.2200165 C33.8050201,46.4806735 36.093684,50.7387685 38.4451667,54.9635571 C40.9183279,50.7464546 43.1278084,46.3884404 45.4927523,42.1149732 C45.9414582,41.1721459 47.5436021,41.1644598 47.9923079,42.1072871 C48.2982198,42.6734959 48.0949824,43.3165656 47.7837917,43.8315338 C45.1390665,48.527736 42.533933,53.2469965 39.902141,57.9485791 C39.5273397,59.1985938 37.6008078,59.3318194 37.1148857,58.0994827 C34.4281933,53.2626249 31.7280398,48.4329409 29.0331651,43.598389 C28.6319692,42.9732535 28.7005948,42.0022439 29.410342,41.6128152 M83.9096294,41.9894337 C84.202608,41.3873565 84.8255173,40.8723883 85.5592834,41.0414823 C86.2534578,41.097847 86.5807491,41.763975 86.8869249,42.2789432 C89.5026162,46.9930796 92.1420625,51.694406 94.7551143,56.4085424 C95.1114396,56.9696271 95.1035212,57.794601 94.5677136,58.2483367 C93.8946548,58.8706539 92.6570185,58.6326413 92.2819531,57.8022871 C89.9697982,53.5416301 87.7341871,49.2348565 85.3058965,45.0331262 C82.9119187,49.273287 80.6475377,53.5774985 78.3166427,57.8484037 C77.8996102,58.8142892 76.3053846,58.8501577 75.8118081,57.9383309 C75.450204,57.3539317 75.6930331,56.6724316 76.0150455,56.1346613 C78.6492129,51.4228307 81.2860198,46.7086942 83.9096294,41.9894337 M60.2443538,41.0824748 C63.8076063,40.7391627 67.5978512,41.4437212 70.4458138,43.6470676 C71.074002,44.1722838 71.984611,44.7256825 71.9001487,45.6428895 C71.9212643,46.5780307 70.6701667,47.269779 69.8492989,46.770183 C69.1155328,46.2910832 68.5242969,45.6354596 67.7694152,45.1871042 C64.7050181,43.2115223 60.5637268,42.9809396 57.2802556,44.5796467 C56.1611303,45.0561844 55.2584397,45.8606621 54.3372729,46.6138991 C53.7592342,47.1211812 52.7483263,46.9905176 52.2996204,46.3807543 C51.8905062,45.8401658 51.9300979,45.0049438 52.4606266,44.5517206 C54.5170192,42.5351462 57.3515206,41.3540501 60.2443538,41.0824748 M12.3146482,41.1977662 C16.0362675,40.6546157 20.0851781,41.2054523 23.1469359,43.4549153 C23.8120763,43.9878176 24.7282281,44.4669174 24.8839555,45.3687522 C25.0713562,46.340018 23.9627887,47.2057282 23.0231458,46.8624161 C22.4527615,46.6164611 22.0465507,46.1347994 21.5608926,45.770991 C18.4041148,43.265325 13.7270159,42.8015974 10.1159894,44.6488216 C8.94169974,45.1561036 8.04956689,46.0707486 7.03047667,46.8009273 C5.79020085,47.4542452 4.4599199,45.8967867 5.22535933,44.7948573 C7.03865895,42.8195316 9.65435025,41.6435596 12.3146482,41.1977662"/>
    <rect width="100" height="100"/>
  </g>
</svg>
