<svg xmlns="http://www.w3.org/2000/svg" width="100" height="100" viewBox="0 0 100 100">
  <g fill="none" fill-rule="evenodd">
    <path fill="#FFF" d="M91.7117752,40.036225 L93.3480019,40.036225 L93.3480019,40.2994752 L92.6833926,40.2994752 L92.6833926,42.1239455 L92.3769594,42.1239455 L92.3769594,40.2994752 L91.7117752,40.2994752 L91.7117752,40.036225 Z M95.4952189,40.036225 L96,40.036225 L96,42.1239455 L95.6932794,42.1239455 L95.6932794,40.3180378 L95.6883925,40.3180378 L94.9809516,42.1239455 L94.6771055,42.1239455 L93.9708144,40.3180378 L93.9647778,40.3180378 L93.9647778,42.1239455 L93.6566198,42.1239455 L93.6566198,40.036225 L94.1631257,40.036225 L94.8363588,41.768164 L95.4952189,40.036225 Z M19.3831386,51.1445404 L19.3831386,40 L22.4310851,40 L22.4310851,51.1445404 L19.3831386,51.1445404 Z M40.4420259,40.0093938 L44.1807406,40.0093938 L48.5915387,51.2082155 L45.2469326,51.2082155 L44.3934616,48.8189948 L40.0973604,48.8189948 L39.1941587,51.2082155 L36.0950441,51.2082155 L40.4420259,40.0093938 Z M42.2789002,42.3193019 L40.8022142,46.7003368 L43.6719351,46.7003368 L42.3108083,42.3193019 L42.2789002,42.3193019 Z M53.1253125,44.4380443 L53.9790709,44.4380443 C54.9800093,44.4380443 56.0119935,44.1972941 56.0119935,43.249762 C56.0119935,42.222355 55.0297401,42.1284174 54.0132788,42.1284174 L53.1253125,42.1284174 L53.1253125,44.4380443 Z M53.1253125,49.0927356 L54.029664,49.0927356 C55.1441494,49.0927356 56.3080781,48.9304542 56.3080781,47.7922345 C56.3080781,46.571046 55.1110915,46.4605147 54.0630095,46.4605147 L53.1253125,46.4605147 L53.1253125,49.0927356 Z M50.0759286,40.0080719 L55.3413475,40.0080719 C57.4720068,40.0080719 59.063677,40.9218539 59.063677,42.8470117 C59.063677,44.2611379 58.3260527,45.048076 57.0474272,45.4637639 L57.0474272,45.4952639 C58.5701069,45.8021079 59.3588992,46.6033898 59.3588992,47.9688597 C59.3588992,50.6480494 56.9479658,51.2082998 54.8986579,51.2082998 L50.0759286,51.2082998 L50.0759286,40.0080719 Z M63.4882157,46.9896307 L59.2585179,40.0081563 L62.7669766,40.0081563 L65.0146324,44.50141 L67.2283678,40.0081563 L70.7394136,40.0081563 L66.5387494,46.9896307 L66.5387494,51.2083842 L63.4882157,51.2083842 L63.4882157,46.9896307 Z M74.8138538,42.2223831 L71.9947261,42.2223831 L71.9947261,40.0081 L80.6861024,40.0081 L80.6861024,42.2223831 L77.8669747,42.2223831 L77.8669747,51.208328 L74.8138538,51.208328 L74.8138538,42.2223831 Z M82.137923,40.0080719 L90.2069468,40.0080719 L90.2069468,42.1284174 L85.1870194,42.1284174 L85.1870194,44.4380443 L89.9269601,44.4380443 L89.9269601,46.5555773 L85.1870194,46.5555773 L85.1870194,49.0927356 L90.3860349,49.0927356 L90.3860349,51.2082998 L82.137923,51.2082998 L82.137923,40.0080719 Z M12.4563401,42.4600958 C10.4271546,42.6251897 9.31928076,43.9285032 9.31928076,45.6151609 C9.31928076,47.255131 10.8724313,48.6338196 12.3724016,48.6338196 L12.7018316,48.6304446 L13.2563435,48.6304446 C13.2563435,48.6304446 13.6240058,48.6304446 13.6265929,48.2797256 L13.6265929,44.7598789 L16.7587655,44.7598789 C16.7587655,46.7466305 16.751004,51.208103 16.751004,51.208103 C16.751004,51.208103 13.6596509,51.2055717 11.8647459,51.2055717 C8.48966898,51.2055717 6.08161011,48.4777257 6.08161011,45.6151609 C6.08161011,42.5191583 8.70095264,39.9336249 11.96277,40.0480938 L16.6480931,40.0624376 L16.6455059,42.4600958 L12.4563401,42.4600958 Z M30.5818053,42.4600958 C28.5514699,42.6251897 27.4458957,43.9285032 27.4458957,45.6151609 C27.4458957,47.255131 28.9964591,48.6338196 30.4978667,48.6338196 L30.8261469,48.6304446 L31.3818086,48.6304446 C31.3818086,48.6304446 31.7468838,48.6304446 31.7494709,48.2797256 L31.7494709,44.7598789 L34.8764692,44.7598789 C34.8764692,46.7466305 34.8712949,51.208103 34.8712949,51.208103 C34.8712949,51.208103 31.7825289,51.2055717 29.9887737,51.2055717 C26.6151341,51.2055717 24.2096624,48.4777257 24.2096624,45.6151609 C24.2096624,42.5191583 26.8264178,39.9336249 30.089385,40.0480938 L34.7669466,40.0624376 L34.7657968,42.4600958 L30.5818053,42.4600958 Z M7.13748227,55.6592254 L6,55.6592254 L6,55.0491936 L9.07238071,55.0491936 L9.07238071,55.6592254 L7.93403606,55.6592254 L7.93403606,58.9326968 L7.13748227,58.9326968 L7.13748227,55.6592254 Z M14.8058432,55.0491936 L17.1529604,55.0491936 L17.1529604,55.6592254 L15.6049842,55.6592254 L15.6049842,56.6174449 L17.0207285,56.6174449 L17.0207285,57.2297267 L15.6049842,57.2297267 L15.6049842,58.3201338 L17.163309,58.3201338 L17.163309,58.9326968 L14.8058432,58.9326968 L14.8058432,55.0491936 Z M26.0846253,58.8776561 C25.7945773,58.944875 25.4803827,59 25.1802737,59 C23.895324,59 23.0010336,58.3699995 23.0010336,57.0554359 C23.0010336,55.7262473 23.832945,54.9795279 25.1802737,54.9795279 C25.4421504,54.9795279 25.7882532,55.0315592 26.079451,55.1389968 L26.0210964,55.7985286 C25.7221372,55.629216 25.4473247,55.5918097 25.1613013,55.5918097 C24.3443378,55.5918097 23.832945,56.206904 23.832945,57.0008734 C23.832945,57.7925928 24.3331268,58.387437 25.1802737,58.387437 C25.4918811,58.387437 25.8632805,58.3202182 26.05013,58.2254369 L26.0846253,58.8776561 Z M31.895731,55.0491936 L32.6908474,55.0491936 L32.6908474,56.6174449 L34.2836676,56.6174449 L34.2836676,55.0491936 L35.0802214,55.0491936 L35.0802214,58.9326968 L34.2836676,58.9326968 L34.2836676,57.2297267 L32.6908474,57.2297267 L32.6908474,58.9326968 L31.895731,58.9326968 L31.895731,55.0491936 Z M41.1862618,55.0491936 L42.1659281,55.0491936 L43.6782592,57.9542273 L43.6897576,57.9542273 L43.6897576,55.0491936 L44.4532534,55.0491936 L44.4532534,58.9326968 L43.4799113,58.9326968 L41.9595313,56.0276632 L41.9494701,56.0276632 L41.9494701,58.9326968 L41.1862618,58.9326968 L41.1862618,55.0491936 Z M52.3110511,58.3874089 C53.1228403,58.3874089 53.4266863,57.682877 53.4266863,56.9783452 C53.4266863,56.2937821 53.1021431,55.5920628 52.3110511,55.5920628 C51.5211089,55.5920628 51.1954158,56.2937821 51.1954158,56.9783452 C51.1954158,57.682877 51.498112,58.3874089 52.3110511,58.3874089 Z M52.3110511,54.9794998 C53.5566186,54.9794998 54.2574479,55.8032817 54.2574479,56.9783452 C54.2574479,58.1534087 53.5692669,58.9999719 52.3110511,58.9999719 C51.03645,58.9999719 50.3660915,58.1705649 50.3660915,56.9783452 C50.3660915,55.7883755 51.047661,54.9794998 52.3110511,54.9794998 Z M60.208662,55.0491936 L61.0063657,55.0491936 L61.0063657,58.3201338 L62.5480178,58.3201338 L62.5480178,58.9326968 L60.208662,58.9326968 L60.208662,55.0491936 Z M70.0318577,58.3874089 C70.8447967,58.3874089 71.1463431,57.682877 71.1463431,56.9783452 C71.1463431,56.2937821 70.82065,55.5920628 70.0318577,55.5920628 C69.2404782,55.5920628 68.9136353,56.2937821 68.9136353,56.9783452 C68.9136353,57.682877 69.2163315,58.3874089 70.0318577,58.3874089 Z M70.0318577,54.9794998 C71.2777127,54.9794998 71.9756674,55.8032817 71.9756674,56.9783452 C71.9756674,58.1534087 71.2874863,58.9999719 70.0318577,58.9999719 C68.7549569,58.9999719 68.0857483,58.1705649 68.0857483,56.9783452 C68.0857483,55.7883755 68.7664554,54.9794998 70.0318577,54.9794998 Z M81.029618,55.7984724 C80.722035,55.6592535 80.3250517,55.5920347 80.0053953,55.5920347 C79.076897,55.5920347 78.5655043,56.2068477 78.5655043,57.0008171 C78.5655043,57.7925365 79.0668359,58.3873807 79.9139828,58.3873807 C80.1301533,58.3873807 80.300905,58.3648807 80.4383112,58.3328182 L80.4383112,57.3169424 L79.5957637,57.3169424 L79.5957637,56.7069106 L81.2003697,56.7069106 L81.2003697,58.8008186 C80.7792397,58.9124749 80.3411495,58.9999437 79.9139828,58.9999437 C78.6287457,58.9999437 77.7344552,58.3702245 77.7344552,57.0556609 C77.7344552,55.7261911 78.5655043,54.9794717 79.9139828,54.9794717 C80.3744949,54.9794717 80.7410074,55.041628 81.0796362,55.1389406 L81.029618,55.7984724 Z M88.3127241,57.3967049 L86.8624845,55.0491093 L87.7932825,55.0491093 L88.735004,56.6769856 L89.6893737,55.0491093 L90.5316338,55.0491093 L89.1089904,57.3967049 L89.1089904,58.9326124 L88.3127241,58.9326124 L88.3127241,57.3967049 Z"/>
    <rect width="100" height="100"/>
  </g>
</svg>
