<svg xmlns="http://www.w3.org/2000/svg" width="100" height="100" viewBox="0 0 100 100">
  <g fill="none" fill-rule="evenodd">
    <rect width="100" height="100"/>
    <path fill="#FFF" d="M15,53.9835984 C15,51.3234395 16.5531411,47.5465117 17.6483741,45.9232338 C18.3860225,44.8297051 19.0499893,43.7926166 19.9451997,42.862806 C20.7340505,42.0433857 21.7116844,40.8218291 22.6416542,40.200987 L22.6416542,42.0618533 C22.4174873,42.3957219 21.9706106,42.8134208 21.6842099,43.2008246 C21.3634661,43.6345011 21.1153631,43.9667097 20.8100216,44.4230037 C20.3213088,45.1531987 19.6802374,46.2365598 19.3401365,47.0864827 C18.5654392,49.0226717 17.7416209,51.0769286 17.7416209,53.7507826 L17.7416209,54.2743069 C17.7416209,59.9581661 21.3305799,63.506013 25.1697234,65.420207 C29.1610172,67.4103462 34.8638467,68.3476268 40.8416292,68.3476268 L41.1917208,68.3476268 C42.8709948,68.3476268 44.4813744,68.2793591 46.0330586,68.1729112 C47.5187623,68.0710284 49.1674398,67.9865756 50.5598968,67.7427623 C52.065582,67.4790289 53.3572992,67.3234034 54.807411,67.0341474 C56.2136052,66.7536065 57.4897119,66.3898577 58.8315909,66.1028843 C59.8737482,65.8800285 61.7590809,65.3766318 62.6938379,65.0099781 C63.3188825,64.7649198 63.9387236,64.6126142 64.5702205,64.380006 C65.0832858,64.1909728 65.8552772,63.8575192 66.3448227,63.7066662 C68.6481006,62.9972213 71.1047777,61.6073816 73.1000083,60.5549381 L73.1000083,65.8470359 C65.7258141,69.736844 54.272491,73 43.0000416,73 L41.1917208,73 C37.5238766,73 34.4461096,72.5488935 31.3962333,71.948594 C28.9224886,71.4615898 25.2602643,70.1970806 23.4465318,69.0572792 C21.147833,67.6124518 19.1419872,66.2819574 17.636302,64.0328573 C16.306287,62.0462456 15,59.1275408 15,55.8444647 L15,53.9835984 Z M85,43.922927 C84.9931314,43.9335096 84.6659352,46.2458974 84.5668605,46.573126 C84.3229204,47.3798887 84.1293501,48.1134036 83.7944528,48.8274135 C83.054723,50.4046264 82.5064821,51.348132 81.4895097,52.6354664 C80.59534,53.7677977 79.5456897,54.7673286 78.3740693,55.6359265 C77.7382014,56.1071606 75.2640405,57.6953709 74.4416792,57.7634312 L74.4416792,53.9252907 C74.8685744,53.8263129 76.6435929,52.4215332 77.0238647,52.0797795 C77.805847,51.3771821 78.4369276,50.6162771 79.0740443,49.7622042 C80.1247354,48.353897 81.3833583,45.7566107 81.3833583,43.3413026 L81.3833583,42.3527692 C81.3833583,40.0611315 80.0941388,37.4746353 79.0605152,36.1779634 C77.6886641,34.4573676 76.3521968,33.5302545 74.3632104,32.4282183 C71.0854207,30.6125872 65.5526416,29.4424907 60.4417624,29.4424907 L57.8167,29.4424907 C55.3000785,29.4424907 52.1542496,29.8396471 49.9175765,30.2326534 C47.2927222,30.6937199 45.1784355,31.1807241 42.7787887,31.7806086 C41.6648231,32.0590745 40.4873748,32.4560234 39.4343943,32.8081521 C38.8817824,32.9928277 38.3385368,33.1279106 37.8183948,33.3488989 C37.3900426,33.530877 36.6765385,33.8000054 36.244856,33.9317684 C35.2928233,34.2224768 34.1060087,34.8175888 33.1604284,35.2184802 C32.479186,35.5073212 30.706249,36.483612 30.2250291,36.5954548 L30.2250291,35.1998051 C30.5790754,35.1174274 32.7510169,33.7925354 33.3165335,33.5132394 C34.3845001,32.9857727 35.4722401,32.5215936 36.5631021,31.9810543 C37.4832893,31.5249677 38.9716989,30.9628484 39.988255,30.6271122 C41.2162813,30.2214484 42.2886189,29.8377796 43.606978,29.4661458 C48.5992174,28.0586686 53.8805633,27 60.2667166,27 L60.7916459,27 C66.9806905,27 73.0444349,28.3309095 77.0284438,30.5273044 C79.1985121,31.7239609 80.9337758,33.1021806 82.3909643,35.0093195 C83.1785663,36.040183 83.6162849,36.9137609 84.1432955,38.2056603 C84.3541414,38.7229595 84.5753943,39.4996346 84.6850841,40.1078192 C84.7287935,40.3495575 84.9802267,42.2054437 85,42.2363613 L85,43.922927 Z M53.5583625,50.3780663 C53.5583625,48.4657398 54.319947,46.5446984 55.2345144,45.53583 C56.1301411,44.5477116 57.7902662,43.3994028 59.6250208,43.3994028 L60.7333666,43.3994028 C62.4698792,43.3994028 64.0311378,44.5574642 64.8006316,45.5671626 C65.6115452,46.6308111 66.2748876,48.4119971 66.2748876,50.2616584 L66.2748876,51.8318162 L57.1750042,51.8318162 L57.1750042,52.2389325 C57.1750042,53.6850049 58.5732891,54.9721318 60.0916708,54.9721318 L60.7333666,54.9721318 C61.8908335,54.9721318 63.1407146,54.3060545 63.5917541,53.6345822 L65.8815029,55.7705944 C65.1725778,56.2497136 64.6911499,56.9330134 63.7443207,57.3341122 C62.8747116,57.7026335 62.0069757,57.9962469 60.7916459,57.9962469 L60.0333916,57.9962469 C56.0192024,57.9962469 53.5583625,55.0740146 53.5583625,51.0756836 L53.5583625,50.3780663 Z M57.1750042,48.9822091 L57.1750042,49.3893254 L62.6584541,49.3893254 L62.6584541,49.098617 C62.6584541,47.6548271 61.6169212,46.3654178 60.0916708,46.3654178 L59.8000666,46.3654178 C58.4569388,46.3654178 57.1750042,47.6714272 57.1750042,48.9822091 Z M32.03335,57.7634312 L32.03335,43.632011 L39.7332834,43.632011 C42.0892207,43.632011 43.7000167,45.4594697 43.7000167,47.8191677 L43.7000167,57.7634312 L40.083375,57.7634312 L40.083375,47.7610675 C40.083375,47.0854452 39.5070351,46.5397183 38.7999833,46.5397183 L35.5917125,46.5397183 L35.5917125,57.7634312 L32.03335,57.7634312 Z M46.3250791,53.5764821 L46.3250791,39.7357704 L49.9417208,39.7357704 L49.9417208,43.632011 L52.6833417,43.632011 L52.6833417,46.5397183 L49.9417208,46.5397183 L49.9417208,53.5764821 C49.9417208,54.1213789 50.3392683,54.7395235 50.8750208,54.7395235 L52.6833417,54.7395235 L52.6833417,57.7634312 L50.233325,57.7634312 C47.8825912,57.7634312 46.3250791,55.9648151 46.3250791,53.5764821 Z M68.3750208,54.3324071 L68.3750208,37.7584963 L71.9916625,37.7584963 L71.9916625,57.6472308 C71.4124087,57.5127703 71.124551,57.5438954 70.5671519,57.3226997 C70.1691881,57.1649991 69.7397952,56.9429734 69.4677561,56.6740525 C68.9615595,56.1731458 68.3750208,55.2977004 68.3750208,54.3324071 Z M25.1357965,46.9464197 L25.2217584,43.632426 L28.8250791,43.632011 L28.8250791,57.9379392 C26.5517734,57.8875166 25.14995,56.3673665 25.14995,53.9835984 L25.1357965,46.9464197 Z M25.2084374,41.6547369 L25.2084374,38.2237128 L28.8250791,38.2237128 L28.8250791,41.6547369 L25.2084374,41.6547369 Z M75.8938724,37.7427262 C76.1367718,37.7427262 76.3740515,37.8047689 76.6059195,37.9286468 C76.8371631,38.0535622 77.0178287,38.2311828 77.1468755,38.4629611 C77.2759224,38.6941169 77.3408621,38.9358552 77.3408621,39.1871386 C77.3408621,39.4359319 77.2773793,39.6749727 77.1495813,39.904261 C77.0226159,40.1341718 76.8436155,40.3124149 76.6142451,40.4389903 C76.3844585,40.5663957 76.1446811,40.6296834 75.8938724,40.6296834 C75.6428554,40.6296834 75.4024537,40.5663957 75.1732915,40.4389903 C74.9432967,40.3124149 74.7645044,40.1341718 74.6367064,39.904261 C74.5084921,39.6749727 74.4448013,39.4359319 74.4448013,39.1871386 C74.4448013,38.9358552 74.509741,38.6941169 74.6394122,38.4629611 C74.7690835,38.2311828 74.9499572,38.0535622 75.1818252,37.9286468 C75.4130688,37.8047689 75.6507648,37.7427262 75.8938724,37.7427262 Z M75.8938724,37.9815595 C75.6901032,37.9815595 75.492162,38.0338497 75.2996325,38.1378075 C75.1071029,38.2415579 74.9564095,38.3905434 74.8477604,38.583104 C74.7389032,38.7764947 74.6845786,38.9775629 74.6845786,39.1871386 C74.6845786,39.3948468 74.7382787,39.5940474 74.8450546,39.7847406 C74.9518304,39.9754337 75.101275,40.1242117 75.2931801,40.2306596 C75.4850853,40.3371074 75.6848997,40.3906426 75.8938724,40.3906426 C76.1022206,40.3906426 76.3026594,40.3371074 76.4945646,40.2306596 C76.6864697,40.1242117 76.8350817,39.9754337 76.9412331,39.7847406 C77.0473846,39.5940474 77.1004603,39.3948468 77.1004603,39.1871386 C77.1004603,38.9775629 77.0467602,38.7764947 76.9387355,38.583104 C76.8305026,38.3905434 76.6798092,38.2415579 76.4866552,38.1378075 C76.2935013,38.0338497 76.0955601,37.9815595 75.8938724,37.9815595 Z M75.2584208,39.9845638 L75.2584208,38.4316285 L75.7935488,38.4316285 C75.9769202,38.4316285 76.1092973,38.4453236 76.1913045,38.4739587 C76.2731035,38.5028013 76.3380432,38.5530164 76.3869562,38.6241892 C76.4356609,38.6959844 76.4598052,38.7719297 76.4598052,38.8520249 C76.4598052,38.9657353 76.4192179,39.0645057 76.3380432,39.1485434 C76.2566605,39.2327887 76.1486358,39.2798914 76.0143855,39.2902664 C76.0693344,39.313299 76.1138764,39.3406891 76.1467625,39.3726442 C76.2096208,39.4340644 76.2862164,39.5365697 76.3771736,39.6807827 L76.5672055,39.9845638 L76.2599907,39.9845638 L76.1217857,39.7397129 C76.0131366,39.5475673 75.9259259,39.4268019 75.859113,39.3784542 C75.8133222,39.3425566 75.7456766,39.324919 75.6574252,39.324919 L75.5098539,39.324919 L75.5098539,39.9845638 L75.2584208,39.9845638 Z M75.5098539,39.1107783 L75.8151954,39.1107783 C75.9606853,39.1107783 76.0601763,39.0885757 76.113252,39.0454156 C76.1663277,39.0022554 76.1931778,38.9447777 76.1931778,38.8729825 C76.1931778,38.8273324 76.1800649,38.7862472 76.1544637,38.7495196 C76.1288625,38.713622 76.0936868,38.6862319 76.0483123,38.6685943 C76.0025215,38.6503343 75.918641,38.6418267 75.7956302,38.6418267 L75.5098539,38.6418267 L75.5098539,39.1107783 Z"/>
  </g>
</svg>
