<svg xmlns="http://www.w3.org/2000/svg" width="100" height="100" viewBox="0 0 100 100">
  <g fill="none" fill-rule="evenodd">
    <g fill="#FFF" transform="translate(15 21)">
      <path d="M69.6417938 50.8091572C69.6417938 51.3148198 69.2674554 51.6544247 68.8252708 51.6544247L68.8252708 51.6507868C68.3708092 51.6544247 68.0035785 51.3148198 68.0035785 50.8091572 68.0035785 50.3039226 68.3708092 49.9658156 68.8252708 49.9658156 69.2674554 49.9658156 69.6417938 50.3039226 69.6417938 50.8091572M69.9730554 50.8091572C69.9730554 50.1153959 69.4300708 49.7124494 68.8252708 49.7124494 68.2161631 49.7124494 67.6736092 50.1153959 67.6736092 50.8091572 67.6736092 51.5029185 68.2161631 51.907149 68.8252708 51.907149 69.4300708 51.907149 69.9730554 51.5029185 69.9730554 50.8091572M68.6348708 50.9018156L68.7578554 50.9018156 69.0425938 51.3987045 69.3551169 51.3987045 69.0400092 50.8814864C69.20284 50.8695029 69.3370246 50.7926798 69.3370246 50.5746222 69.3370246 50.3039226 69.1487785 50.216614 68.8306554 50.216614L68.3708092 50.216614 68.3708092 51.3987045 68.6348708 51.3987045 68.6348708 50.9018156M68.6348708 50.7019473L68.6348708 50.4177663 68.8188092 50.4177663C68.9191785 50.4177663 69.0555169 50.425042 69.0555169 50.5470173 69.0555169 50.6786222 68.9853015 50.7019473 68.8670554 50.7019473L68.6348708 50.7019473M59.5660585 41.3387588L61.7108585 47.1700346 57.3534123 47.1700346 59.5660585 41.3387588zM57.2674738 39.0678782L52.32332 51.5151374 55.8144892 51.5151374 56.5969815 49.3148741 62.44812 49.3148741 63.1886123 51.5151374 66.9793815 51.5151374 61.99732 39.0668082 57.2674738 39.0678782zM47.3414738 51.5192033L50.8830431 51.5192033 50.8830431 39.0638123 47.3406123 39.0633844 47.3414738 51.5192033zM22.7490738 39.0633844L19.7939969 48.9354667 16.9623354 39.0638123 13.14012 39.0633844 17.1841815 51.5192033 22.2872892 51.5192033 26.3630123 39.0633844 22.7490738 39.0633844zM37.0676277 41.775516L38.5899662 41.775516C40.7987354 41.775516 42.2271662 42.7609481 42.2271662 45.3177218 42.2271662 47.8751374 40.7987354 48.8605695 38.5899662 48.8605695L37.0676277 48.8605695 37.0676277 41.775516zM33.5553508 39.0633844L33.5553508 51.5192033 39.2983662 51.5192033C42.3583354 51.5192033 43.3570738 51.0135407 44.4370123 49.8800263 45.2005508 49.0841909 45.6939969 47.3371621 45.6939969 45.4281416 45.6939969 43.6774749 45.2761508 42.115335 44.54772 41.1427424 43.2360277 39.4032033 41.3462431 39.0633844 38.52492 39.0633844L33.5553508 39.0633844zM-.0000646153846 39.045837L-.0000646153846 51.5192033 3.57230462 51.5192033 3.57230462 42.0479276 6.33978154 42.0489975C7.25645846 42.0489975 7.90950462 42.2758288 8.35125846 42.7438288 8.91125846 43.337014 9.13978154 44.2929152 9.13978154 46.042084L9.13978154 51.5192033 12.6010123 51.5192033 12.6010123 44.6278123C12.6010123 39.7092115 9.44541231 39.045837 6.35830462 39.045837L-.0000646153846 39.045837zM27.8543354 39.0629564L27.8554123 51.5192033 31.39612 51.5192033 31.39612 39.0629564 27.8543354 39.0629564zM23.1729508 0L23.1729508 4.46986008C23.4686738 4.44653498 23.7646123 4.42813169 24.0616277 4.41721811 35.5175046 4.03395885 42.9810123 13.7515391 42.9810123 13.7515391 42.9810123 13.7515391 34.4080585 24.1085267 25.4773508 24.1085267 24.6591046 24.1085267 23.8929815 24.0334156 23.1729508 23.9067325L23.1729508 26.6697942C23.7887354 26.7476872 24.4264892 26.7934815 25.0920277 26.7934815 33.4032892 26.7934815 39.4135969 22.5767737 45.23372 17.5856296 46.1979969 18.3534321 50.1485815 20.2207243 50.9612277 21.0392428 45.4267046 25.6417778 32.5307662 29.3513251 25.2199662 29.3513251 24.5154431 29.3513251 23.8376277 29.3089547 23.1729508 29.2456132L23.1729508 33.1284938 54.7616892 33.1284938 54.7616892 0 23.1729508 0z"/>
      <path d="M23.1729508 9.88534979L23.1729508 6.89288889C23.4652277 6.87213169 23.7607354 6.85672428 24.0616277 6.84730864 32.2994431 6.58987654 37.7040892 13.8797202 37.7040892 13.8797202 37.7040892 13.8797202 31.8667354 21.9347984 25.6083046 21.9347984 24.70692 21.9347984 23.9000892 21.7903539 23.1729508 21.5476872L23.1729508 12.4735802C26.3798123 12.8583374 27.0246738 14.2659753 28.9532277 17.4589465L33.24132 13.8666667C33.24132 13.8666667 30.1111354 9.78798354 24.8346431 9.78798354 24.2604277 9.78798354 23.7116277 9.828 23.1729508 9.88534979zM9.52015077 14.2623374C9.52015077 14.2623374 14.0759662 7.58322634 23.1729508 6.89288889L23.1729508 4.46986008C13.0972585 5.27318519 4.37181231 13.7515391 4.37181231 13.7515391 4.37181231 13.7515391 9.31338154 27.9460412 23.1729508 29.2456132L23.1729508 26.6697942C13.0024892 25.3984691 9.52015077 14.2623374 9.52015077 14.2623374z"/>
      <path d="M23.1729508,21.5476872 L23.1729508,23.9067325 C15.4860892,22.5453169 13.3524892,14.6062222 13.3524892,14.6062222 C13.3524892,14.6062222 17.0431046,10.5435885 23.1729508,9.88534979 L23.1729508,12.4735802 C23.1682123,12.4735802 23.1651969,12.4722963 23.1611046,12.4722963 C19.9445508,12.0883951 17.4310123,15.0746502 17.4310123,15.0746502 C17.4310123,15.0746502 18.8391969,20.1011029 23.1729508,21.5476872 Z"/>
    </g>
    <rect width="100" height="100"/>
  </g>
</svg>
