<svg xmlns="http://www.w3.org/2000/svg" width="100" height="100" viewBox="0 0 100 100">
  <g fill="none" fill-rule="evenodd">
    <path fill="#FFF" d="M94.505,54.4723 L95.416,54.4723 L95.416,57.3793 L94.851,57.3793 L94.851,55.0913 L94.84,55.0913 L93.997,57.3793 L93.558,57.3793 L92.719,55.0913 L92.705,55.0913 L92.705,57.3793 L92.14,57.3793 L92.14,54.4723 L93.052,54.4723 L93.779,56.4563 L94.505,54.4723 Z M89.148,54.4723 L91.492,54.4723 L91.492,54.9643 L90.603,54.9643 L90.603,57.3793 L90.036,57.3793 L90.036,54.9643 L89.148,54.9643 L89.148,54.4723 Z M35.7791,40.0003 L60.9141,53.0663 L60.9141,41.3943 L64.5031,41.3943 L64.5191,58.9683 L39.3861,45.8363 L39.3861,57.5463 L35.7931,57.5463 L35.7791,40.0003 Z M8.698,48.3107 L30.225,48.3107 L30.225,45.0197 L8.698,45.0197 L8.698,48.3107 Z M33.625,50.4297 C33.496,50.7187 33.324,50.9687 33.109,51.1837 C32.895,51.4007 32.643,51.5707 32.352,51.6987 C32.063,51.8257 31.75,51.8907 31.412,51.8907 L15.535,51.8907 L8.695,48.3297 L8.695,57.5547 L5,57.5547 L5.039,43.8357 C5.039,43.4997 5.107,43.1877 5.242,42.9007 C5.379,42.6097 5.557,42.3597 5.777,42.1447 C6,41.9277 6.258,41.7577 6.555,41.6287 C6.852,41.5017 7.168,41.4377 7.504,41.4377 L31.412,41.4377 C31.75,41.4377 32.063,41.5017 32.352,41.6287 C32.641,41.7577 32.895,41.9277 33.109,42.1447 C33.324,42.3597 33.496,42.6097 33.625,42.8987 C33.752,43.1877 33.816,43.4997 33.816,43.8357 L33.816,49.5137 C33.816,49.8357 33.752,50.1407 33.625,50.4297 Z M82.1441,50.3222 L82.1641,57.4532 L78.3061,57.4532 L78.3061,50.3222 L65.9451,41.3792 L72.1261,41.3792 L80.1831,47.1792 L88.3241,41.3382 L94.5031,41.3382 L82.1441,50.3222 Z"/>
    <rect width="100" height="100"/>
  </g>
</svg>
