<svg xmlns="http://www.w3.org/2000/svg" width="100" height="100" viewBox="0 0 100 100">
  <g fill="none" fill-rule="evenodd">
    <path fill="#FFF" d="M47.4022727,12.2375 L46.5568182,13.725 L39.5818182,13.725 L37.8909091,13.725 L38.7363636,12.2375 L44.8659091,1.6125 L37.8909091,1.6125 L37.8909091,0.125 L45.7113636,0.125 L47.4022727,0.125 L46.5568182,1.6125 L40.6386364,12.2375 L47.4022727,12.2375 Z M66.2136364,0.125 L65.3681818,1.6125 L56.7022727,1.6125 L56.7022727,0.125 L66.2136364,0.125 Z M66.2136364,6.075 L65.3681818,7.5625 L56.7022727,7.5625 L56.7022727,6.075 L66.2136364,6.075 Z M66.2136364,12.2375 L65.3681818,13.725 L56.7022727,13.725 L56.7022727,12.2375 L66.2136364,12.2375 Z M85.025,4.375 C85.025,6.075 83.5454545,7.5625 81.6431818,7.5625 L81.4318182,7.5625 L84.8136364,13.5125 L83.1227273,13.5125 L79.7409091,7.5625 L76.9931818,7.5625 L76.9931818,13.5125 L75.5136364,13.5125 L75.5136364,7.5625 L75.5136364,0.125 L76.9931818,0.125 L81.6431818,0.125 C83.5454545,0.125 85.025,1.6125 85.025,3.525 L85.025,4.375 Z M76.9931818,1.6125 L76.9931818,6.2875 L81.6431818,6.2875 C82.7,6.2875 83.5454545,5.4375 83.5454545,4.375 L83.5454545,3.525 C83.5454545,2.4625 82.7,1.6125 81.6431818,1.6125 L76.9931818,1.6125 Z M9.77954545,4.375 C9.77954545,6.075 8.3,7.5625 6.60909091,7.5625 L6.39772727,7.5625 L9.56818182,13.5125 L7.87727273,13.5125 L4.49545455,7.5625 L1.74772727,7.5625 L1.74772727,13.5125 L0.268181818,13.5125 L0.268181818,7.5625 L0.268181818,0.125 L1.74772727,0.125 L6.39772727,0.125 C8.3,0.125 9.77954545,1.6125 9.77954545,3.525 L9.77954545,4.375 Z M1.74772727,1.6125 L1.74772727,6.2875 L6.39772727,6.2875 C7.45454545,6.2875 8.3,5.4375 8.3,4.375 L8.3,3.525 C8.3,2.4625 7.45454545,1.6125 6.39772727,1.6125 L1.74772727,1.6125 Z M19.925,13.725 L18.4454545,13.725 L23.0954545,2.0375 L23.9409091,0.125 L24.575,2.0375 L29.225,13.725 L27.7454545,13.725 L23.9409091,4.1625 L19.925,13.725 Z M85.8704545,0.7625 L85.8704545,0.3375 L87.9840909,0.3375 L87.9840909,0.7625 L87.1386364,0.7625 L87.1386364,3.1 L86.7159091,3.1 L86.7159091,0.7625 L85.8704545,0.7625 Z M88.6181818,3.1 L88.6181818,0.3375 L89.2522727,0.3375 L90.0977273,2.675 L90.7318182,0.3375 L91.3659091,0.3375 L91.3659091,3.1 L91.1545455,3.1 L91.1545455,0.7625 L90.9431818,0.7625 L90.0977273,3.1 L89.8863636,3.1 L89.0409091,0.7625 L89.0409091,3.1 L88.6181818,3.1 Z" transform="translate(5 44)"/>
    <rect width="100" height="100"/>
  </g>
</svg>
