<svg xmlns="http://www.w3.org/2000/svg" width="100" height="100" viewBox="0 0 100 100">
  <g fill="none" fill-rule="evenodd">
    <path fill="#FFF" d="M34.6493034,11.1024215 L48.7006688,11.1024215 L48.7006688,13.9014861 L38.9299601,22.2203927 L48.7006688,22.2203927 L48.7006688,24.9976285 L34.6493034,24.9976285 L34.6493034,22.1989682 L44.4211025,13.8795226 L34.6493034,13.8795226 L34.6493034,11.1024215 Z M28.3249009,11.1024215 L31.7981128,11.1024215 L25.6907554,19.4381713 L25.6907554,24.9976285 L22.8821452,24.9976285 L22.8821452,19.4381713 L16.8040924,11.1024215 L20.2777133,11.1024215 L24.3006256,16.6137746 L28.3249009,11.1024215 Z M52.6263715,13.8803446 L52.6263715,11.1002791 L66.6784184,11.1002791 L66.6784184,13.8803446 L52.6263715,13.8803446 Z M52.626426,16.6601405 L66.6782001,16.6601405 L66.6782001,19.4400712 L55.4384439,19.4400712 L55.4384439,22.2200019 L66.6782001,22.2200019 L66.6782001,24.9995284 L52.626426,24.9995284 L52.626426,16.6601405 Z M3.15313725,19.4400039 L3.15313725,25 L0.340983218,25 L0.340983218,19.4400039 L0.340983218,16.6599384 L11.3896464,16.6599384 C11.499641,16.6599384 11.5889179,16.5716802 11.5889179,16.4629407 L11.5889179,14.0774096 C11.5889179,13.9686701 11.499641,13.8798729 11.3896464,13.8798729 L0.340983218,13.8798729 L0.340983218,11.1003465 L11.5889179,11.1003465 C13.1420632,11.1003465 14.4009356,12.344989 14.4009356,13.8798729 L14.4009356,16.6599384 C14.4009356,18.1953613 13.1420632,19.4400039 11.5889179,19.4400039 L11.5885089,19.4400039 L14.8354619,25 L11.5885089,25 L8.34128339,19.4400039 L3.15313725,19.4400039 Z M82.1908443,11.1046044 L85,11.1046044 L85,24.99523 L82.1686275,24.99523 L73.753701,15.3364159 L73.753701,24.99523 L70.9444093,24.99523 L70.9444093,11.1046044 L73.7753727,11.1046044 L82.1908443,20.7647659 L82.1908443,11.1046044 Z M7.40493913,6.93974783 L5.65633871,6.93974783 L5.12122255,5.66438337 L2.20711566,5.66438337 L1.71984101,6.93974783 L-1.42108547e-14,6.93974783 L2.62746672,0.4974393 L4.50977805,0.4974393 L7.40493913,6.93974783 Z M3.59261129,2.03703933 L2.63728036,4.54020315 L4.64335264,4.54020315 L3.59261129,2.03703933 Z M13.756629,0.497627943 L15.1708841,0.497627943 L15.1708841,6.93993647 L13.5464535,6.93993647 L13.5464535,2.91576747 L11.7884483,4.93667778 L11.5399723,4.93667778 L9.78196715,2.91576747 L9.78196715,6.93993647 L8.15753654,6.93993647 L8.15753654,0.497627943 L9.5717916,0.497627943 L11.6641422,2.8873362 L13.756629,0.497627943 Z M19.286658,0.497627943 C21.665785,0.497627943 22.8884014,1.96163585 22.8884014,3.72774277 C22.8884014,5.57914348 21.7039491,6.93993647 19.1053782,6.93993647 L16.4108516,6.93993647 L16.4108516,0.497627943 L19.286658,0.497627943 Z M18.0352821,5.75889375 L19.0955645,5.75889375 C20.7293998,5.75889375 21.2166745,4.66314478 21.2166745,3.7183106 C21.2166745,2.61326422 20.6146348,1.67826644 19.0766187,1.67826644 L18.0352821,1.67826644 L18.0352821,5.75889375 Z M29.4805801,2.02508742 L26.120225,2.02508742 L24.0721721,0 L31.5284966,0 L31.5284966,7.37178174 L29.4805801,5.34655958 L29.4805801,2.02508742 Z M26.1180578,5.34911973 L29.0693748,5.34911973 L26.9605319,7.43403408 L24.0090786,7.43403408 L24.0090786,4.51585467 L26.1180578,2.43094033 L26.1180578,5.34911973 Z" transform="translate(8 34)"/>
    <rect width="100" height="100"/>
  </g>
</svg>
