<svg xmlns="http://www.w3.org/2000/svg" width="100" height="100" viewBox="0 0 100 100">
  <g fill="none" fill-rule="evenodd">
    <path fill="#FFF" d="M15.6269828,14.0634716 C14.402356,14.4917023 11.4734541,16.7995333 10.2136538,17.7364088 C9.03570332,18.7052451 8.64592657,19.0741619 7.58777334,19.069866 L2.84217094e-14,19.0493585 C0.0499496407,18.9897885 10.6426549,11.5403197 12.5969965,10.692595 L15.6270461,14.0634528 L4.72532746,1.93550095 L11.3500748,1.94888372 L26.7559289,19.0488537 L20.0590385,18.9940843 L15.6269828,14.0634716 Z M20.7487512,9.89917297 L18.0916094,6.96108824 C26.5150391,2.08555943 33.4721553,0.266512385 43.1208181,0.20464684 L74.9015152,-2.48689958e-14 L74.5446762,0.827874337 L63.8904388,0.980904644 C58.2872874,1.06130604 48.0043099,1.07387918 42.7379947,1.65787277 C32.9354729,2.74500137 29.0759011,4.42007648 20.7487607,9.89916344 Z M50.8755474,18.4464861 L50.8755665,18.4464957 C48.9693552,17.0020328 53.8611243,8.86680419 55.4225364,7.0410229 C56.2044045,6.12677493 57.5108867,5.11311345 61.7901821,5.10849378 C65.305631,5.10453134 68.8214132,5.11395166 72.3367192,5.10700786 C72.1115458,5.73020678 71.0194736,7.89533892 70.7006589,8.28180093 C68.3844967,8.27518099 66.0676488,8.27932441 63.7511627,8.279172 C60.2072529,8.27899103 60.0062351,8.12265551 58.6160368,10.3817433 C58.1503259,11.1384841 56.2396474,14.1450258 56.3822477,15.0529777 C56.5399262,16.0581808 58.077697,15.8735558 58.9879539,15.8727271 C60.1127734,15.871565 61.4531745,15.9402315 62.5477231,15.853715 L64.8903746,11.330053 L69.2191339,11.3063927 C68.9175406,12.0530274 65.6424672,18.8319671 65.1519339,19.0495204 C62.6215046,19.0554736 52.2721847,19.5048204 50.8755474,18.4464861 Z M38.522746,11.0857055 L43.724862,11.0742945 C44.4893563,11.0726276 45.3713237,10.8952797 45.8196608,10.4656308 C48.284586,8.10312905 45.5318027,8.21431558 43.7539803,8.23497553 L40.0788812,8.27815282 L38.522746,11.0857055 Z M47.0824895,5.10386458 C49.271101,5.09972116 52.0806159,4.78653577 51.4373857,7.77042672 C50.8763761,10.3688368 49.2110547,12.4969162 47.5248638,13.4366153 C45.1995861,14.732677 40.0925878,14.1279758 37.1720864,14.2717668 L34.8018121,19.0460628 L29.1021904,19.0417479 L36.156758,5.13778347 L47.0824895,5.10386458 Z M45.6150044,24.7653443 L45.6206338,20.9719339 C46.2090947,20.9664855 46.7999082,20.9699717 47.3885405,20.9709528 C48.9122522,20.9732769 50.6960469,20.756057 50.69819,22.865753 C50.6993521,24.0681734 50.1462675,24.5820432 49.0297063,24.7118894 C48.082892,24.8219139 46.6367813,24.7883284 45.615014,24.7653443 Z M39.2753054,24.741503 C39.2794488,24.6078467 40.5640994,22.3848115 40.7981884,21.972365 C40.9484183,21.7081482 41.1358628,21.3319352 41.3052858,21.0756718 C41.6933957,21.0632701 42.8792805,21.0200928 43.132915,21.1701418 C43.3160446,21.2786803 43.7299865,22.0767601 43.8725869,22.3182977 C44.0971031,22.6986446 44.3288679,23.1067762 44.5656143,23.5126123 C44.6794488,23.7075054 45.2062156,24.5428093 45.2493738,24.7343782 L44.0923024,24.7342258 C43.7692014,24.7343782 43.7776311,24.7717738 43.6856377,24.6160955 C43.5996069,24.4705138 43.4033898,24.0448274 43.2923843,24.0264725 L40.4550846,24.0314256 C40.3161039,24.2357486 40.1683695,24.5620119 40.0282457,24.7463036 L39.2753149,24.741503 Z M60.3354227,24.7368833 C60.356616,24.5911206 62.1359339,21.5384013 62.3693656,21.0733477 L63.1330502,21.075167 C64.0545468,21.0773196 64.1468641,20.9744104 64.4750992,21.5238565 C64.7475743,21.9793088 66.3091578,24.626354 66.3186067,24.7443319 L64.841387,24.7421602 C64.687347,24.4996416 64.5478995,24.2225182 64.4047944,24.0264821 L61.516364,24.02913 C61.3795454,24.2557799 61.256443,24.4993082 61.1027554,24.7423412 L60.3354322,24.7368833 Z M50.8210829,24.7449796 C50.8202828,24.5893014 51.2179844,23.9680646 51.3075014,23.8062712 C51.7755268,22.9595372 52.4242149,21.8742564 52.8351755,21.0807963 C53.1639154,21.0488777 54.4651016,21.0316468 54.6661099,21.1593784 C54.8540306,21.2786708 56.7797683,24.6556437 56.7865597,24.7464751 L55.3129787,24.7514281 L54.8767194,24.0263011 L52.0028529,24.0287776 C51.8589191,24.1869515 51.7330068,24.5029372 51.5806337,24.7459702 L50.8210924,24.7449892 Z M55.9512653,21.7285033 L55.9512844,21.7284938 L55.9540848,21.1257929 C56.11143,21.0923883 60.9520683,21.0837777 61.0475194,21.115039 C61.1664593,21.15393 61.1234535,21.5288 61.1143665,21.7518303 L59.2501705,21.7683754 C59.1189527,21.9424085 59.1599964,22.1967002 59.160825,22.4498108 C59.1618061,22.7057503 59.162311,22.9618613 59.1616537,23.2177913 C59.1609965,23.5225374 59.2178899,24.5014513 59.1396317,24.6986495 C59.1035696,24.7368833 58.0318527,24.7507709 57.9785692,24.6915533 C57.8571242,24.432642 58.0277093,22.2853694 57.9377066,21.7566309 C57.5638177,21.733304 56.1779057,21.8037802 55.9512653,21.7285033 Z M46.6941701,24.1952193 C47.1044734,24.2390538 48.3343738,24.2319576 48.6584654,24.1317059 C49.1761167,23.9720366 49.4810438,23.5313005 49.4808628,22.8658959 C49.4807104,22.1685726 49.2588422,21.7804437 48.6941941,21.5911704 C48.3935913,21.4904138 47.1044734,21.501501 46.7021235,21.5319528 L46.6941701,24.1952097 Z M40.7763664,23.4302201 L43.0779837,23.431706 C43.0711923,23.3425416 42.3897283,22.1295387 42.2530812,21.884334 C42.1154339,21.6370147 42.0523968,21.6628182 41.7073023,21.6679427 C41.6166424,21.795341 40.7795001,23.3187288 40.7763664,23.4302106 Z M52.3252777,23.4297439 L54.6103499,23.4327252 C54.6045682,23.316738 54.1849969,22.5998978 54.0799445,22.4134344 C53.9762066,22.2299524 53.890195,22.0724453 53.7970395,21.8946211 C53.6556012,21.6250988 53.5809815,21.6586843 53.2444596,21.6689428 C53.1430459,21.8161914 52.3194864,23.3144234 52.3252681,23.4297534 Z M61.7679791,23.426772 L64.0743971,23.4264387 C64.0686154,23.3468469 63.6214213,22.5510817 63.5329045,22.3996992 C63.0903587,21.6436346 63.2685353,21.6593415 62.7010868,21.6661425 C62.6097506,21.804447 61.7724464,23.3250344 61.7679791,23.426772 Z M38.3909786,21.9387347 L38.3909786,20.7812597 L38.6128411,20.7812597 L38.6128411,21.1981402 C38.6812688,21.1202379 38.7623281,21.0812874 38.8560214,21.0812874 C38.9581366,21.0812874 39.0426172,21.1182641 39.1094658,21.1922186 C39.1763144,21.2661732 39.2097382,21.3723661 39.2097382,21.5108006 C39.2097382,21.6539724 39.1756565,21.7642446 39.107492,21.8416205 C39.0393274,21.9189965 38.9565575,21.9576839 38.8591796,21.9576839 C38.8112802,21.9576839 38.7640395,21.9457092 38.717456,21.9217595 C38.6708726,21.8978098 38.6307377,21.8624122 38.5970502,21.8155655 L38.5970502,21.9387347 L38.3909786,21.9387347 Z M38.611262,21.501326 C38.611262,21.5881766 38.6249474,21.6523924 38.6523185,21.6939754 C38.6907432,21.7529285 38.7418001,21.7824046 38.8054905,21.7824046 C38.8544426,21.7824046 38.8961565,21.7614818 38.9306336,21.7196356 C38.9651106,21.6777894 38.9823489,21.611863 38.9823489,21.5218542 C38.9823489,21.4260555 38.964979,21.3569708 38.9302388,21.3145983 C38.8954986,21.2722258 38.8510212,21.2510398 38.7968055,21.2510398 C38.7436424,21.2510398 38.6994282,21.2716994 38.6641617,21.3130192 C38.6288951,21.354339 38.611262,21.4171073 38.611262,21.501326 Z M39.283166,21.1002365 L39.5192404,21.1002365 L39.7197852,21.6955545 L39.9155927,21.1002365 L40.1453507,21.1002365 L39.8492708,21.9071529 L39.7963712,22.053219 C39.7768956,22.1021711 39.7583415,22.1395426 39.7407082,22.1653346 C39.7230749,22.1911265 39.7028101,22.2120493 39.6799131,22.2281035 C39.6570161,22.2441577 39.6288559,22.2566587 39.5954316,22.265607 C39.5620073,22.2745552 39.5242411,22.2790292 39.4821317,22.2790292 C39.439496,22.2790292 39.3976505,22.2745552 39.3565939,22.265607 L39.3368552,22.0919067 C39.3715954,22.0987495 39.4029138,22.1021708 39.4308112,22.1021708 C39.4823952,22.1021708 39.5205562,22.087038 39.5452954,22.0567719 C39.5700347,22.0265058 39.5889836,21.98795 39.6021428,21.9411034 L39.283166,21.1002365 Z" transform="translate(11 37)"/>
    <rect width="100" height="100"/>
  </g>
</svg>
